<svg width="56" height="61" viewBox="0 0 56 61" fill="none" xmlns="http://www.w3.org/2000/svg">
<path d="M3.5 18.0003C1.567 18.0003 0 19.5673 0 21.5003V30.6153C0.00034493 31.7021 0.295864 32.7684 0.855 33.7003L8.855 47.0373C8.94819 47.1929 8.99759 47.3709 8.998 47.5523V49.1823C7.80375 49.6055 7.00411 50.7333 7 52.0003V58.0003C7 59.6571 8.34315 61.0003 10 61.0003H23C24.6569 61.0003 26 59.6571 26 58.0003V52.0003C25.9948 50.7335 25.1944 49.6065 24 49.1843V43.5563C24.0004 42.3054 23.5319 41.0997 22.687 40.1773L14.639 31.4003C13.2124 29.8521 10.8331 29.6668 9.184 30.9753L8.027 31.9043L7.451 31.2043C7.15718 30.8445 6.99772 30.3938 7 29.9293V21.5003C7 19.5673 5.433 18.0003 3.5 18.0003ZM24 58.0003C24 58.5526 23.5523 59.0003 23 59.0003H10C9.44772 59.0003 9 58.5526 9 58.0003V52.0003C9 51.448 9.44772 51.0003 10 51.0003H23C23.5523 51.0003 24 51.448 24 52.0003V58.0003ZM10.433 32.5323C11.2584 31.8768 12.4499 31.9702 13.163 32.7463L21.212 41.5283C21.7192 42.0819 22.0004 42.8055 22 43.5563V49.0003H11V47.5543C11.0003 47.0103 10.8523 46.4765 10.572 46.0103L2.572 32.6723C2.19811 32.0513 2.00037 31.3402 2 30.6153V21.5003C2 20.6719 2.67157 20.0003 3.5 20.0003C4.32843 20.0003 5 20.6719 5 21.5003V29.9293C4.9998 30.852 5.31765 31.7466 5.9 32.4623L7.1 33.9243L14.224 42.6303C14.4482 42.9131 14.8074 43.0532 15.1639 42.9969C15.5204 42.9405 15.8188 42.6964 15.9448 42.3582C16.0708 42.02 16.0047 41.6401 15.772 41.3643L9.292 33.4443L10.433 32.5323Z" fill="white"/>
<path d="M19 52.0003C17.3431 52.0003 16 53.3435 16 55.0003C16 56.6572 17.3431 58.0003 19 58.0003C20.6568 58.0003 22 56.6572 22 55.0003C22 53.3435 20.6568 52.0003 19 52.0003ZM19 56.0003C18.4477 56.0003 18 55.5526 18 55.0003C18 54.4481 18.4477 54.0003 19 54.0003C19.5523 54.0003 20 54.4481 20 55.0003C20 55.5526 19.5523 56.0003 19 56.0003Z" fill="white"/>
<path d="M47.143 47.0403L55.143 33.7033C55.7031 32.7706 55.9993 31.7032 56 30.6153V21.5003C56 19.5673 54.433 18.0003 52.5 18.0003C50.567 18.0003 49 19.5673 49 21.5003V29.9293C48.9999 30.3908 48.8402 30.8381 48.548 31.1953L47.972 31.8953L46.813 30.9643C45.1649 29.6565 42.7869 29.8424 41.362 31.3903L33.313 40.1743C32.4667 41.0971 31.998 42.3042 32 43.5563V49.1843C30.8057 49.6065 30.0053 50.7335 30 52.0003V58.0003C30 59.6571 31.3432 61.0003 33 61.0003H46C47.6569 61.0003 49 59.6571 49 58.0003V52.0003C48.9948 50.7335 48.1944 49.6065 47 49.1843V47.5543C47.0002 47.3732 47.0497 47.1955 47.143 47.0403ZM34.788 41.5293L42.838 32.7453C43.5502 31.9709 44.7392 31.8771 45.564 32.5303L46.706 33.4473L40.226 41.3673C39.9933 41.6431 39.9272 42.023 40.0532 42.3612C40.1792 42.6994 40.4776 42.9435 40.8341 42.9999C41.1906 43.0562 41.5498 42.9161 41.774 42.6333L48.895 33.9333V33.9283L50.1 32.4623C50.6827 31.7468 51.0006 30.8521 51 29.9293V21.5003C51 20.6719 51.6716 20.0003 52.5 20.0003C53.3284 20.0003 54 20.6719 54 21.5003V30.6153C54 31.3403 53.803 32.0516 53.43 32.6733L45.43 46.0113C45.1489 46.4769 45.0002 47.0104 45 47.5543V49.0003H34L34 43.5563C33.9991 42.8057 34.2804 42.0822 34.788 41.5293ZM47 58.0003C47 58.5526 46.5523 59.0003 46 59.0003H33C32.4477 59.0003 32 58.5526 32 58.0003V52.0003C32 51.448 32.4477 51.0003 33 51.0003H46C46.5523 51.0003 47 51.448 47 52.0003V58.0003Z" fill="white"/>
<path d="M37 52.0003C35.3432 52.0003 34 53.3435 34 55.0003C34 56.6572 35.3432 58.0003 37 58.0003C38.6569 58.0003 40 56.6572 40 55.0003C40 53.3435 38.6569 52.0003 37 52.0003ZM37 56.0003C36.4477 56.0003 36 55.5526 36 55.0003C36 54.4481 36.4477 54.0003 37 54.0003C37.5523 54.0003 38 54.4481 38 55.0003C38 55.5526 37.5523 56.0003 37 56.0003Z" fill="white"/>
<path d="M29.951 1.72333C28.8313 0.754984 27.1707 0.754984 26.051 1.72333C24.919 2.69233 15 11.4673 15 21.0003C15 30.2873 24.339 34.6433 27 35.7003V43.0003C27 43.5526 27.4477 44.0003 28 44.0003C28.5523 44.0003 29 43.5526 29 43.0003V35.7003C31.661 34.6433 41 30.2873 41 21.0003C41 11.4673 31.081 2.69233 29.951 1.72333ZM28 33.9353C26.164 33.2273 17 29.2753 17 21.0003C17 13.9843 23.507 6.53633 27.352 3.24233C27.7246 2.91796 28.2794 2.91796 28.652 3.24233C32.493 6.53633 39 13.9843 39 21.0003C39 29.2753 29.836 33.2273 28 33.9353Z" fill="white"/>
<path d="M29 10.0003C29 9.44801 28.5523 9.00029 28 9.00029C27.4477 9.00029 27 9.44801 27 10.0003V15.3823L22.447 13.1053C22.1273 12.9456 21.7466 12.9686 21.4484 13.1657C21.1502 13.3627 20.9798 13.7039 21.0014 14.0607C21.023 14.4174 21.2332 14.7356 21.553 14.8953L27 17.6183V20.3823L22.447 18.1053C22.1273 17.9456 21.7466 17.9686 21.4484 18.1657C21.1502 18.3627 20.9798 18.7039 21.0014 19.0607C21.023 19.4174 21.2332 19.7356 21.553 19.8953L27 22.6183V25.3823L22.447 23.1053C22.1273 22.9456 21.7466 22.9686 21.4484 23.1657C21.1502 23.3627 20.9798 23.7039 21.0014 24.0607C21.023 24.4174 21.2332 24.7356 21.553 24.8953L27 27.6183V29.0003C27 29.5526 27.4477 30.0003 28 30.0003C28.5523 30.0003 29 29.5526 29 29.0003V27.6183L34.447 24.9003C34.7668 24.7406 34.977 24.4224 34.9986 24.0657C35.0202 23.7089 34.8498 23.3677 34.5516 23.1707C34.2534 22.9736 33.8728 22.9506 33.553 23.1103L29 25.3823V22.6183L34.447 19.9003C34.7668 19.7406 34.977 19.4224 34.9986 19.0657C35.0202 18.7089 34.8498 18.3677 34.5516 18.1707C34.2534 17.9736 33.8728 17.9506 33.553 18.1103L29 20.3823V17.6183L34.447 14.9003C34.9413 14.6534 35.1419 14.0526 34.895 13.5583C34.6481 13.064 34.0473 12.8634 33.553 13.1103L29 15.3823V10.0003Z" fill="white"/>
</svg>
