<svg width="62" height="61" viewBox="0 0 62 61" fill="none" xmlns="http://www.w3.org/2000/svg">
<path d="M39.7705 40.2559C44.3474 36.6615 47.0141 31.1596 47 25.34V8.95003C47.0001 8.6179 46.8352 8.30743 46.56 8.12143C40.6074 4.10163 31.4014 4.00243 31.002 4.00003C30.612 4.00203 21.402 4.09423 15.4404 8.12113C15.165 8.3071 15 8.61772 15 8.95003V25.34C14.9958 31.1772 17.6783 36.6914 22.2734 40.291L30.3682 46.8979C30.736 47.1981 31.2641 47.1981 31.6318 46.8979L39.7705 40.2559ZM23.5322 38.7359L23.5195 38.7259C19.4023 35.5049 16.9976 30.5675 17 25.34V9.49323C22.4756 6.09283 30.9248 6.00053 31.001 6.00003C31.0879 6.00003 39.5322 6.09863 45 9.49323V25.34C45.0111 30.5526 42.6202 35.4796 38.5186 38.6965L31 44.832L23.5322 38.7359Z" fill="white"/>
<path d="M49.6614 33.0978C50.549 30.6077 51.0015 27.9835 50.9992 25.34V7.9331C51.0105 7.03336 50.6071 6.17848 49.9054 5.6152C42.884 0.0640001 31.4816 0 30.9992 0C30.5168 0 19.1144 0.0640001 12.093 5.6152C11.3913 6.17848 10.9879 7.03336 10.9992 7.9331V25.34C10.9971 27.9837 11.4495 30.608 12.3367 33.0983L1.58224 43.853C1.07244 44.3634 0.876764 45.1087 1.07006 45.8038C1.26335 46.4988 1.81571 47.0361 2.51584 47.21L11.5295 49.463L13.7895 58.483C13.9601 59.1862 14.5 59.7408 15.1984 59.93C15.3755 59.9795 15.5586 60.0046 15.7424 60.0047C16.2702 60.0038 16.7758 59.7922 17.1467 59.4168L27.1384 49.4251L29.7521 51.5584C30.4838 52.1412 31.5214 52.1396 32.2512 51.5545L34.8601 49.4252L44.8527 59.4173C45.2233 59.7927 45.7286 60.0042 46.256 60.0047C46.4399 60.0046 46.6229 59.9795 46.8 59.93C47.4985 59.7409 48.0385 59.1865 48.2092 58.4834L50.4621 49.47L59.4826 47.21C60.1829 47.0361 60.7354 46.4988 60.9288 45.8036C61.1221 45.1084 60.9262 44.363 60.4162 43.8526L49.6614 33.0978ZM13.1639 35.099C14.3208 37.5706 15.911 39.815 17.8592 41.7259L12.0459 47.5392C12.0377 47.537 12.0309 47.5319 12.0226 47.5298L2.99634 45.2671L13.1639 35.099ZM15.7292 57.9971L13.4685 48.9717L13.4608 48.9529L19.352 43.0618C19.482 43.1687 19.6058 43.2803 19.738 43.3848L25.5813 48.154L15.7292 57.9971ZM31.0114 50.0049L20.9892 41.8252C20.6534 41.5599 20.3277 41.2856 20.0119 41.0023L20.0058 40.9932L19.9932 40.9848C17.5414 38.7976 15.6399 36.0629 14.4432 33.0029C14.4351 32.9804 14.4276 32.959 14.4179 32.9371C13.4795 30.5142 12.9984 27.9383 12.9992 25.34V7.9331C12.9917 7.64594 13.1145 7.37077 13.3332 7.1846C19.8039 2.0684 30.8892 2 30.9992 2C31.1092 2 42.1828 2.0591 48.6652 7.1846C48.884 7.37077 49.0068 7.64594 48.9992 7.9331V25.34C49.0002 27.9391 48.5187 30.5159 47.5792 32.9393C47.5703 32.9593 47.5634 32.9793 47.556 33C46.3579 36.0619 44.4551 38.7983 42.0018 40.9873L41.9927 40.9934L41.988 41C41.6671 41.2865 41.338 41.5661 40.9972 41.8353L34.2539 47.352C34.2439 47.3611 34.2313 47.3639 34.2219 47.3733L34.2147 47.3842L31.0114 50.0049ZM46.2663 58.0029L36.4178 48.1544L42.2497 43.3944C42.3859 43.2868 42.514 43.1719 42.6474 43.0617L48.5394 48.9536C48.5372 48.9619 48.5321 48.9687 48.53 48.977L46.2663 58.0029ZM49.9704 47.5312L49.9523 47.5386L44.1392 41.7255C46.0868 39.8143 47.6769 37.5701 48.8341 35.0989L58.9963 45.27L49.9704 47.5312Z" fill="white"/>
<path d="M39.7188 30.816L38.5688 24.0894L43.437 19.3247C43.9444 18.8286 44.1267 18.0877 43.9076 17.4128C43.6885 16.7378 43.1059 16.2453 42.4038 16.1416L35.6792 15.1606L32.6719 9.04205C32.359 8.40425 31.7104 8.00006 31 8.00006C30.2896 8.00006 29.641 8.40425 29.3281 9.04205L26.32 15.1606L19.5964 16.1416C18.8942 16.2449 18.3111 16.7373 18.0918 17.4124C17.8725 18.0874 18.0548 18.8285 18.5622 19.3247L23.4304 24.0894L22.2804 30.816C22.1568 31.5164 22.4434 32.226 23.0186 32.6443C23.5939 33.0625 24.3573 33.1163 24.9855 32.7828L31 29.6089L37.0127 32.7828C37.6412 33.1136 38.4031 33.0587 38.9776 32.6411C39.5521 32.2236 39.8395 31.5159 39.7188 30.816ZM36.5869 24.358L37.7021 30.8849L31.8691 27.8057C31.3252 27.5189 30.6748 27.5189 30.1309 27.8057L24.2979 30.8844L25.4131 24.357C25.5169 23.7524 25.3168 23.1355 24.8779 22.7069L20.1523 18.0821L26.6807 17.1294C27.2883 17.0405 27.8132 16.6581 28.084 16.1069L31 10.1748L33.916 16.1075C34.187 16.6583 34.7118 17.0405 35.3193 17.1294L41.8477 18.0821L37.123 22.7065C36.6836 23.1354 36.4832 23.7528 36.5869 24.358Z" fill="white"/>
</svg>
