<svg width="60" height="60" viewBox="0 0 60 60" fill="none" xmlns="http://www.w3.org/2000/svg">
<path d="M58.438 25.854L54.018 24.868C53.6666 24.7974 53.3843 24.536 53.287 24.191C52.7112 21.8804 51.7945 19.6685 50.567 17.628C50.3955 17.3237 50.4094 16.9488 50.603 16.658L53.04 12.833C53.5487 12.0428 53.4349 11.0043 52.767 10.343L49.657 7.23302C48.9958 6.56516 47.9573 6.45131 47.167 6.96002L43.342 9.40002C43.0512 9.59364 42.6764 9.60756 42.372 9.43602C40.3315 8.20853 38.1196 7.2918 35.809 6.71602C35.4638 6.61854 35.2023 6.33581 35.132 5.98402L34.146 1.56202C33.947 0.647539 33.1359 -0.0034694 32.2 1.96666e-05H27.8C26.8633 -0.00412376 26.051 0.646861 25.851 1.56202L24.865 5.98202C24.7944 6.33342 24.533 6.61571 24.188 6.71302C21.8774 7.2888 19.6655 8.20553 17.625 9.43302C17.3208 9.60502 16.9457 9.5911 16.655 9.39702L12.824 6.95702C12.0376 6.44947 11.0032 6.56256 10.345 7.22802L7.22502 10.348C6.55977 11.0067 6.44672 12.0412 6.95402 12.828L9.39402 16.658C9.58764 16.9488 9.60156 17.3237 9.43002 17.628C8.20253 19.6685 7.2858 21.8804 6.71002 24.191C6.61254 24.5363 6.32981 24.7978 5.97802 24.868L1.55602 25.854C0.643925 26.0555 -0.0040819 26.8659 1.93574e-05 27.8V32.2C-0.00377497 33.135 0.645732 33.9457 1.55902 34.146L5.98202 35.132C6.33342 35.2026 6.61571 35.4641 6.71302 35.809C7.2888 38.1196 8.20553 40.3315 9.43302 42.372C9.60456 42.6764 9.59064 43.0512 9.39702 43.342L6.96002 47.167C6.45131 47.9573 6.56516 48.9958 7.23302 49.657L10.343 52.767C11.0046 53.4342 12.0426 53.548 12.833 53.04L16.658 50.6C16.9488 50.4064 17.3237 50.3925 17.628 50.564C19.6685 51.7915 21.8804 52.7082 24.191 53.284C24.5363 53.3815 24.7978 53.6642 24.868 54.016L25.854 58.435C26.0525 59.3503 26.8635 60.0024 27.8 60H32.2C33.1368 60.0042 33.949 59.3532 34.149 58.438L35.135 54C35.413 52.753 37.203 53.606 42.166 50.662L47.719 56.211C49.2198 57.7969 51.4635 58.4423 53.5775 57.8963C55.6915 57.3503 57.3421 55.699 57.8871 53.5847C58.4321 51.4705 57.7856 49.227 56.199 47.727L50.653 42.183C53.632 37.151 52.753 35.412 54.002 35.133L58.441 34.144C59.3536 33.9439 60.0029 33.1343 60 32.2V27.8C60.0028 26.8644 59.3521 26.0538 58.438 25.854ZM55.958 51.971C55.9569 53.5875 54.9829 55.0444 53.4897 55.6633C51.9964 56.2823 50.2774 55.9416 49.133 54.8C33.233 38.91 33.986 39.5 33.423 39.48C33.352 39.48 33.2812 39.4881 33.212 39.504C33.165 39.5059 33.1182 39.5112 33.072 39.52C29.7913 40.5856 26.193 39.883 23.5542 37.6616C20.9153 35.4402 19.6094 32.0144 20.1 28.6L25.616 34.107C25.8572 34.3477 26.2042 34.4491 26.537 34.376L32.327 33.106C32.7076 33.0225 33.005 32.7255 33.089 32.345L34.37 26.545C34.4432 26.2118 34.3414 25.8642 34.1 25.623L28.59 20.113C32.0059 19.6279 35.4305 20.9378 37.6507 23.5787C39.8708 26.2195 40.5729 29.8183 39.508 33.1C39.236 33.944 39.102 33.47 54.786 49.141C55.5394 49.8897 55.9615 50.9089 55.958 51.971ZM44.722 36.257L41.582 33.118C42.717 28.8723 41.4403 24.3458 38.2541 21.3189C35.0679 18.292 30.482 17.249 26.3 18.6C25.9689 18.7071 25.7172 18.9787 25.6356 19.317C25.554 19.6553 25.6541 20.0117 25.9 20.258L32.3 26.65L31.276 31.29L26.64 32.306L20.24 25.913C19.9937 25.6671 19.6373 25.567 19.299 25.6486C18.9607 25.7302 18.6891 25.9819 18.582 26.313C17.225 30.4924 18.264 35.0793 21.2895 38.2661C24.315 41.4528 28.8418 42.7284 33.086 41.59L36.23 44.732C29.1764 47.7149 20.9981 45.2812 16.723 38.9271C12.4479 32.573 13.275 24.0804 18.6957 18.6705C24.1165 13.2606 32.6107 12.4506 38.9562 16.7384C45.3018 21.0262 47.7191 29.2094 44.722 36.257ZM53.567 33.183C52.4603 33.4366 51.593 34.2957 51.329 35.4C50.858 37.2646 50.1421 39.0585 49.2 40.735L46.232 37.768C50.0209 29.8628 47.5638 20.3776 40.4134 15.3062C33.2629 10.2347 23.4988 11.052 17.2909 17.2416C11.0831 23.4312 10.237 33.1929 15.2874 40.3582C20.3378 47.5236 29.8156 50.0086 37.732 46.243C39.602 48.108 38.918 47.426 40.708 49.214C39.0399 50.1503 37.255 50.8615 35.4 51.329C34.2963 51.593 33.4376 52.4598 33.184 53.566L32.2 58H27.806L26.82 53.582C26.5819 52.4929 25.7533 51.6292 24.675 51.346C22.5571 50.8186 20.5298 49.978 18.66 48.852C17.7042 48.2926 16.5152 48.3169 15.583 48.915L11.757 51.352L8.64702 48.241L11.084 44.416C11.6826 43.484 11.707 42.2948 11.147 41.339C10.0211 39.4693 9.18047 37.4419 8.65302 35.324C8.36955 34.2461 7.50589 33.418 6.41702 33.18L2.00002 32.2V27.807L6.42002 26.82C7.50916 26.5819 8.37288 25.7533 8.65602 24.675C9.18347 22.5571 10.0241 20.5298 11.15 18.66C11.71 17.7043 11.6856 16.515 11.087 15.583L8.64202 11.762L11.752 8.64302L15.583 11.084C16.5149 11.6831 17.7044 11.7074 18.66 11.147C20.5298 10.0211 22.5571 9.18047 24.675 8.65302C25.7533 8.36988 26.5819 7.50616 26.82 6.41702L27.8 2.00002H32.19L33.177 6.42002C33.4151 7.50916 34.2437 8.37288 35.322 8.65602C37.4399 9.18347 39.4673 10.0241 41.337 11.15C42.2926 11.7104 43.4821 11.6861 44.414 11.087L48.24 8.65002L51.35 11.761L48.913 15.586C48.3144 16.518 48.2901 17.7073 48.85 18.663C49.976 20.5328 50.8166 22.5601 51.344 24.678C51.6272 25.7563 52.4909 26.5849 53.58 26.823L58 27.8V32.19L53.567 33.183Z" fill="white"/>
<path d="M31 7.00002H29C28.4477 7.00002 28 7.44773 28 8.00002C28 8.5523 28.4477 9.00002 29 9.00002H31C31.5523 9.00002 32 8.5523 32 8.00002C32 7.44773 31.5523 7.00002 31 7.00002Z" fill="white"/>
<path d="M29 53H31C31.5523 53 32 52.5523 32 52C32 51.4477 31.5523 51 31 51H29C28.4477 51 28 51.4477 28 52C28 52.5523 28.4477 53 29 53Z" fill="white"/>
<path d="M14.444 13.029L13.029 14.444C12.65 14.8364 12.6555 15.4601 13.0412 15.8459C13.4269 16.2316 14.0506 16.237 14.443 15.858L15.858 14.443C16.237 14.0507 16.2316 13.4269 15.8458 13.0412C15.4601 12.6555 14.8364 12.6501 14.444 13.029Z" fill="white"/>
<path d="M8.00002 28C7.44774 28 7.00002 28.4477 7.00002 29V31C7.00002 31.5523 7.44774 32 8.00002 32C8.55231 32 9.00002 31.5523 9.00002 31V29C9.00002 28.4477 8.55231 28 8.00002 28Z" fill="white"/>
<path d="M52 28C51.4477 28 51 28.4477 51 29V31C51 31.5523 51.4477 32 52 32C52.5523 32 53 31.5523 53 31V29C53 28.4477 52.5523 28 52 28Z" fill="white"/>
<path d="M14.444 46.971C14.8364 47.35 15.4601 47.3446 15.8458 46.9589C16.2316 46.5731 16.237 45.9494 15.858 45.557L14.443 44.142C14.0506 43.7631 13.4269 43.7685 13.0412 44.1542C12.6555 44.54 12.65 45.1637 13.029 45.556L14.444 46.971Z" fill="white"/>
<path d="M45.556 13.029C45.1636 12.6501 44.5399 12.6555 44.1542 13.0412C43.7685 13.4269 43.7631 14.0507 44.142 14.443C45.68 15.981 45.737 16.151 46.264 16.151C46.6684 16.1509 47.033 15.9073 47.1877 15.5337C47.3424 15.1601 47.2569 14.73 46.971 14.444L45.556 13.029Z" fill="white"/>
<path d="M52 55.0001C53.6569 55.0001 55 53.6569 55 52.0001C55 50.3432 53.6569 49.0001 52 49.0001C50.3432 49.0001 49 50.3432 49 52.0001C49 53.6569 50.3432 55.0001 52 55.0001ZM52 51.0001C52.5523 51.0001 53 51.4478 53 52.0001C53 52.5523 52.5523 53.0001 52 53.0001C51.4477 53.0001 51 52.5523 51 52.0001C51 51.4478 51.4477 51.0001 52 51.0001Z" fill="white"/>
<path d="M37.707 36.293C37.3146 35.914 36.6909 35.9195 36.3052 36.3052C35.9195 36.6909 35.914 37.3146 36.293 37.707L47.293 48.707C47.5441 48.967 47.9159 49.0712 48.2655 48.9797C48.6152 48.8882 48.8882 48.6151 48.9797 48.2655C49.0712 47.9159 48.967 47.5441 48.707 47.293L37.707 36.293Z" fill="white"/>
</svg>
