<svg width="53" height="60" viewBox="0 0 53 60" fill="none" xmlns="http://www.w3.org/2000/svg">
<path d="M3.98456 60H4.98431C6.6405 59.9982 7.98267 58.656 7.9845 56.9998H45.9844C45.9862 58.656 47.3284 59.9982 48.9846 60H49.9843C51.6405 59.9982 52.9827 58.656 52.9845 56.9998V3.00018C52.9827 1.34399 51.6405 0.00183105 49.9843 0H48.9846C47.3284 0.00183105 45.9862 1.34399 45.9844 3.00018H31.8001C31.379 1.80496 30.2515 1.00388 28.9844 1.00021H16.9846C15.717 1.00388 14.5896 1.80496 14.1689 3.00018H7.9845C7.98267 1.34399 6.6405 0.00183105 4.98431 0H3.98456C2.32837 0.00183105 0.986206 1.34399 0.984375 3.00018V56.9998C0.986206 58.656 2.32837 59.9982 3.98456 60ZM13.9844 26.9998H7.9845V20.9999H13.9844V26.9998ZM7.9845 28.9998H13.9844V31.0002H7.9845V28.9998ZM13.9844 33.0002V35.9999C13.9844 36.5524 14.4321 37.0001 14.9842 37.0001C15.5367 37.0001 15.9844 36.5524 15.9844 35.9999V35.0002H17.9843V35.9999C17.9843 36.5524 18.432 37.0001 18.9846 37.0001C19.5366 37.0001 19.9843 36.5524 19.9843 35.9999V35.0002H21.9843V35.9999C21.9843 36.5524 22.432 37.0001 22.9845 37.0001C23.5366 37.0001 23.9843 36.5524 23.9843 35.9999V35.0002H25.9842V35.9999C25.9842 36.5524 26.4319 37.0001 26.9844 37.0001C27.5365 37.0001 27.9842 36.5524 27.9842 35.9999V35.0002H29.9842V35.9999C29.9842 36.5524 30.4323 37.0001 30.9844 37.0001C31.5364 37.0001 31.9846 36.5524 31.9846 35.9999V33.0002H45.9844V39.0001H7.9845V33.0002H13.9844ZM45.9844 31.0002H31.9846V28.9998H45.9844V31.0002ZM7.9845 41.0001H45.9844V43H7.9845V41.0001ZM45.9844 26.9998H31.9846V20.9999H45.9844V26.9998ZM45.9844 18.9999H31.9846V17H45.9844V18.9999ZM29.9842 33.0002H15.9844V27.4141L18.9846 24.4139L21.5705 26.9998C22.3514 27.7803 23.6171 27.7803 24.3985 26.9998L26.9844 24.4139L29.9842 27.4141V33.0002ZM13.9844 18.9999H7.9845V17H13.9844V18.9999ZM7.9845 45H45.9844V50.9999H7.9845V45ZM45.9844 15H31.9846V9.00009H45.9844V15ZM29.9842 24.586L28.3985 22.9999C27.6171 22.2198 26.3513 22.2198 25.5704 22.9999L22.9845 25.5858L20.3986 22.9999C19.6172 22.2198 18.3515 22.2198 17.5701 22.9999L15.9844 24.586V21.4142L18.9846 18.414L21.5705 20.9999C22.3514 21.7804 23.6171 21.7804 24.3985 20.9999L26.9844 18.414L29.9842 21.4142V24.586ZM13.9844 15H7.9845V9.00009H13.9844V15ZM7.9845 54.9998V52.9999H45.9844V54.9998H7.9845ZM47.9843 3.00018C47.9848 2.44812 48.4325 2.00043 48.9846 1.99997H49.9843C50.5364 2.00043 50.9841 2.44812 50.9845 3.00018V56.9998C50.9841 57.5519 50.5364 57.9996 49.9843 58H48.9846C48.4325 57.9996 47.9848 57.5519 47.9843 56.9998V3.00018ZM45.9844 7.00012H31.9846V5.00015H45.9844V7.00012ZM16.9846 3.00018H28.9844C29.5365 3.00064 29.9837 3.44788 29.9842 3.99994V18.5861L28.3985 17C27.6171 16.2195 26.3513 16.2195 25.5704 17L22.9845 19.5859L20.3986 17C19.6172 16.2195 18.3515 16.2195 17.5701 17L15.9844 18.5861V3.99994C15.9848 3.44788 16.4321 3.00064 16.9846 3.00018ZM13.9844 5.00015V7.00012H7.9845V5.00015H13.9844ZM2.98434 3.00018C2.9848 2.44812 3.4325 2.00043 3.98456 1.99997H4.98431C5.53638 2.00043 5.98407 2.44812 5.98453 3.00018V56.9998C5.98407 57.5519 5.53638 57.9996 4.98431 58H3.98456C3.4325 57.9996 2.9848 57.5519 2.98434 56.9998V3.00018Z" fill="white"/>
</svg>
