<svg width="60" height="58" viewBox="0 0 60 58" fill="none" xmlns="http://www.w3.org/2000/svg">
<path d="M10.5 35.0001H6.99997V31.5C6.99997 30.9 6.6 30.5001 6 30.5001C5.4 30.5001 5.00004 30.9 5.00004 31.5V36C5.00004 36.6 5.4 37 6 37H10.5C11.1 37 11.5 36.6 11.5 36C11.5 35.4 11.1 35.0001 10.5 35.0001Z" fill="white"/>
<path d="M6 27C6.6 27 6.99997 26.5 6.99997 26.0001V16.0001C6.99997 15.4001 6.6 15.0001 6 15.0001C5.4 15.0001 5.00004 15.4001 5.00004 16.0001V26.0001C5.00004 26.6001 5.4 27 6 27Z" fill="white"/>
<path d="M10.5 5.00004H6C5.4 5.00004 5.00004 5.4 5.00004 6V10.5C5.00004 11.1 5.4 11.5 6 11.5C6.6 11.5 6.99997 11.1 6.99997 10.5V7.00008H10.5C11.1 7.00008 11.5 6.60012 11.5 6.00012C11.5 5.40012 11.1 5.00004 10.5 5.00004Z" fill="white"/>
<path d="M26 5.00004H16.0001C15.4001 5.00004 15.0001 5.4 15.0001 6C15.0001 6.6 15.4001 6.99996 16.0001 6.99996H26C26.5001 6.99996 27 6.6 27 6C27 5.4 26.6 5.00004 26 5.00004Z" fill="white"/>
<path d="M36 5.00004H31.5C30.9 5.00004 30.5 5.4 30.5 6C30.5 6.6 30.9 6.99996 31.5 6.99996H35V10.5C35 11.1 35.4 11.5 36 11.5C36.6 11.5 37 11.1 37 10.5V6C37 5.4 36.6 5.00004 36 5.00004Z" fill="white"/>
<path d="M36 15C35.4 15 35 15.4 35 16V26C35 26.6 35.4 27 36 27C36.6 27 37 26.5 37 26V16.0001C37 15.4001 36.6 15 36 15Z" fill="white"/>
<path d="M36 30.5001C35.4 30.5001 35 30.9 35 31.5V35.0001H31.5C30.9 35.0001 30.5 35.4 30.5 36C30.5 36.6 30.9 37 31.5 37H36C36.6 37 37 36.6 37 36V31.5C37 30.9 36.6 30.5001 36 30.5001Z" fill="white"/>
<path d="M26 35.0001H16.0001C15.4001 35.0001 15.0001 35.4 15.0001 36C15.0001 36.6 15.4001 37 16.0001 37H26C26.5001 37 27 36.6 27 36C27 35.4 26.6 35.0001 26 35.0001Z" fill="white"/>
<path d="M48 16.0001C47.4 16.0001 47 16.4 47 17V21.5C47 22.1 47.4 22.5 48 22.5C48.6 22.5 49 22.1 49 21.5V17C49 16.4 48.6 16.0001 48 16.0001Z" fill="white"/>
<path d="M48 26.0001C47.4 26.0001 47 26.4 47 27V37C47 37.6 47.4 37.9999 48 37.9999C48.6 37.9999 49 37.4999 49 37V27C49 26.4 48.6 26.0001 48 26.0001Z" fill="white"/>
<path d="M48 41.5001C47.4 41.5001 47 41.9 47 42.5V46.0001H43.5C42.9 46.0001 42.5 46.4 42.5 47C42.5 47.6 42.9 48 43.5 48H48C48.6 48 49 47.6 49 47V42.5C49 41.9 48.6 41.5001 48 41.5001Z" fill="white"/>
<path d="M38 46.0001H28.0001C27.4001 46.0001 27.0001 46.4001 27.0001 47.0001C27.0001 47.6001 27.4001 48 28.0001 48H38C38.5001 48 39 47.6001 39 47.0001C39 46.4001 38.6 46.0001 38 46.0001Z" fill="white"/>
<path d="M22.5 46.0001H18C17.4 46.0001 17 46.4001 17 47.0001C17 47.6001 17.4 48 18 48H22.5C23.1 48 23.5 47.6001 23.5 47.0001C23.5 46.4001 23.1 46.0001 22.5 46.0001Z" fill="white"/>
<path d="M59 20C59.6 20 60 19.6001 60 19.0001C60 18.4001 59.6 18.0001 59 18.0001H55.0001V15.0001H59C59.6 15.0001 60 14.6002 60 14.0002C60 13.4002 59.6 13.0002 59 13.0002H54.9622C54.7118 11.3277 53.2307 10.0002 51.5 10.0002H42V3.50004C42 1.60008 40.4 0 38.5 0H3.50004C1.59996 0 0 1.60008 0 3.50004V38.5001C0 40.4 1.59996 42.0001 3.50004 42.0001H12V49.5001C12 51.2307 13.3275 52.7119 15 52.9623V57.0001C15 57.6001 15.4 58.0001 16 58.0001C16.6 58.0001 16.9999 57.6001 16.9999 57.0001V53H19.9999V57C19.9999 57.6 20.3999 58 20.9999 58C21.5999 58 21.9998 57.6 21.9998 57V53H24.9998V57C24.9998 57.6 25.3998 58 25.9998 58C26.5998 58 26.9998 57.6 26.9998 57V53H30V57C30 57.6 30.4 58 31 58C31.6 58 31.9999 57.6 31.9999 57V53H34.9999V57C34.9999 57.6 35.3999 58 35.9999 58C36.5999 58 36.9998 57.6 36.9998 57V53H39.9998V57C39.9998 57.6 40.3998 58 40.9998 58C41.5998 58 41.9998 57.6 41.9998 57V53H45V57C45 57.6 45.4 58 46 58C46.6 58 46.9999 57.6 46.9999 57V53H49.9999V57C49.9999 57.6 50.3999 58 50.9999 58C51.5999 58 51.9998 57.6 51.9998 57V52.8675C53.4062 52.5027 54.7015 51.412 54.9544 50H58.9999C59.5999 50 59.9999 49.6001 59.9999 49.0001C59.9999 48.4001 59.5999 48.0001 58.9999 48.0001H55V45.0001H58.9999C59.5999 45.0001 59.9999 44.6002 59.9999 44.0002C59.9999 43.4002 59.5999 43.0002 58.9999 43.0002H55V40.0002H58.9999C59.5999 40.0002 59.9999 39.6002 59.9999 39.0002C59.9999 38.4002 59.5999 38.0003 58.9999 38.0003H55V35.0003H58.9999C59.5999 35.0003 59.9999 34.6003 59.9999 34.0003C59.9999 33.4003 59.5999 33.0004 58.9999 33.0004H55V30.0004H58.9999C59.5999 30.0004 59.9999 29.6004 59.9999 29.0004C59.9999 28.4004 59.5999 28.0004 58.9999 28.0004H55V25.0004H58.9999C59.5999 25.0004 59.9999 24.6005 59.9999 24.0005C59.9999 23.4005 59.5999 23.0005 58.9999 23.0005H55V20.0005L59 20ZM3.50004 40.0001C2.7 40.0001 2.00004 39.3001 2.00004 38.5001V3.50004C2.00004 2.7 2.7 2.00004 3.50004 2.00004H38.5001C39.3001 2.00004 40.0001 2.7 40.0001 3.50004V38.5001C40.0001 39.3001 39.3001 40.0001 38.5001 40.0001H3.50004ZM53 49.5C53 50.2 52.0001 51 51 51H15.5C14.7 51 14 50.3 14 49.5V42H38.5001C40.4 42 42.0001 40.4 42.0001 38.5V12H51.5002C52.3002 12 53.0002 12.7 53.0002 13.5L53 49.5Z" fill="white"/>
</svg>
