<svg width="18" height="14" viewBox="0 0 18 14" fill="none" xmlns="http://www.w3.org/2000/svg">
<path d="M17.1 0.00614213C17.0233 -0.00204738 16.946 -0.00204738 16.8694 0.00614213H1.11938C1.01843 0.00775442 0.918156 0.023444 0.82125 0.0527883L8.94938 8.44327L17.1 0.00614213Z" fill="#DF0024"/>
<path d="M17.9325 0.81662L9.7425 9.27124C9.53172 9.48844 9.24658 9.61035 8.94938 9.61035C8.65217 9.61035 8.36703 9.48844 8.15625 9.27124L0.039375 0.880758C0.0144222 0.975823 0.00119176 1.07378 0 1.1723V12.8338C0 13.1431 0.118526 13.4397 0.329505 13.6584C0.540483 13.8771 0.826631 14 1.125 14H16.875C17.1734 14 17.4595 13.8771 17.6705 13.6584C17.8815 13.4397 18 13.1431 18 12.8338V1.1723C17.9955 1.05082 17.9727 0.930807 17.9325 0.81662ZM1.89563 12.8338H1.11375V12L5.20312 7.79606L5.99625 8.6182L1.89563 12.8338ZM16.8638 12.8338H16.0763L11.9756 8.6182L12.7687 7.79606L16.8581 12L16.8638 12.8338Z" fill="#DF0024"/>
</svg>
