<svg width="23" height="23" viewBox="0 0 23 23" fill="none" xmlns="http://www.w3.org/2000/svg">
<path d="M2.9532 0H20.0482C21.6723 0 23 1.32828 23 2.95252V20.0489C23 21.6726 21.6723 23 20.0482 23H2.9532C1.32909 23 0 21.6726 0 20.0489V2.95252C0 1.32828 1.32909 0 2.9532 0ZM16.7552 2.55451C16.1849 2.55451 15.7198 3.02152 15.7198 3.59151V6.06911C15.7198 6.63933 16.1849 7.10527 16.7552 7.10527H19.3544C19.9237 7.10527 20.3899 6.63933 20.3899 6.06911V3.59151C20.3899 3.02152 19.9237 2.55451 19.3544 2.55451H16.7552ZM20.3998 9.7264H18.3761C18.568 10.3532 18.672 11.0142 18.672 11.7014C18.672 15.526 15.47 18.628 11.5216 18.628C7.57428 18.628 4.37215 15.526 4.37215 11.7014C4.37215 11.0142 4.47718 10.3532 4.66816 9.7264H2.55683V19.4433C2.55683 19.9465 2.96769 20.3559 3.47039 20.3559H19.4866C19.9898 20.3559 20.3998 19.9465 20.3998 19.4433V9.7264ZM11.5217 6.97462C8.97176 6.97462 6.9033 8.97792 6.9033 11.4514C6.9033 13.9223 8.97176 15.9272 11.5217 15.9272C14.073 15.9272 16.1416 13.9223 16.1416 11.4514C16.1416 8.97785 14.073 6.97462 11.5217 6.97462Z" fill="white"/>
</svg>
