<svg width="16" height="20" viewBox="0 0 16 20" fill="none" xmlns="http://www.w3.org/2000/svg">
<path d="M7.69394 0.00509035C3.72038 0.144513 0.419338 3.24463 0.0379747 7.20178C-0.0399382 7.99321 0.00516938 8.76004 0.144592 9.49406C0.144592 9.49406 0.156894 9.58017 0.197901 9.7442C0.320922 10.2937 0.505452 10.8268 0.73509 11.3271C1.53472 13.2216 3.38413 16.3914 7.53402 19.8401C7.78826 20.0533 8.16142 20.0533 8.41976 19.8401C12.5696 16.3955 14.4191 13.2257 15.2228 11.323C15.4565 10.8227 15.637 10.2937 15.76 9.7401C15.7969 9.58017 15.8133 9.48996 15.8133 9.48996C15.9076 8.99788 15.9568 8.49349 15.9568 7.97681C15.9568 3.47426 12.2293 -0.154836 7.69394 0.00509035ZM7.97689 11.9463C5.83633 11.9463 4.10175 10.2117 4.10175 8.07113C4.10175 5.93057 5.83633 4.19598 7.97689 4.19598C10.1174 4.19598 11.852 5.93057 11.852 8.07113C11.852 10.2117 10.1174 11.9463 7.97689 11.9463Z" fill="#DF0024"/>
</svg>
