<svg width="40" height="40" viewBox="0 0 40 40" fill="none" xmlns="http://www.w3.org/2000/svg">
<g filter="url(#filter0_d)">
<path d="M26.7161 22.5022C25.7365 22.5022 24.7747 22.349 23.8633 22.0478C23.4166 21.8954 22.8676 22.0352 22.595 22.3151L20.796 23.6732C18.7096 22.5595 17.4244 21.2748 16.3259 19.204L17.6441 17.4519C17.9865 17.1099 18.1094 16.6103 17.9622 16.1415C17.6597 15.2253 17.506 14.2639 17.506 13.2839C17.5061 12.576 16.9301 12 16.2222 12H13.2839C12.576 12 12 12.576 12 13.2839C12 21.3985 18.6016 28 26.7161 28C27.424 28 28 27.424 28 26.7161V23.786C28 23.0781 27.424 22.5022 26.7161 22.5022Z" fill="#DF0024"/>
</g>
<defs>
<filter id="filter0_d" x="0" y="0" width="40" height="40" filterUnits="userSpaceOnUse" color-interpolation-filters="sRGB">
<feFlood flood-opacity="0" result="BackgroundImageFix"/>
<feColorMatrix in="SourceAlpha" type="matrix" values="0 0 0 0 0 0 0 0 0 0 0 0 0 0 0 0 0 0 127 0"/>
<feOffset/>
<feGaussianBlur stdDeviation="6"/>
<feColorMatrix type="matrix" values="0 0 0 0 0.87451 0 0 0 0 0 0 0 0 0 0.141176 0 0 0 1 0"/>
<feBlend mode="normal" in2="BackgroundImageFix" result="effect1_dropShadow"/>
<feBlend mode="normal" in="SourceGraphic" in2="effect1_dropShadow" result="shape"/>
</filter>
</defs>
</svg>
